Title:
Tango Libre

Country:
France/2012

Language:
French

Subtitle:
English

Director:
Frédéric Fonteyne

Writers:
Philippe Blasband, Anne Paulicevich

Stars:
François Damiens, Sergi López, Jan Hammenecker 

Synopsis:
A prison guard is attracted to a woman at his weekly tango class. They meet again when she visits her husband in the prison where he works and he is drawn into her complicated romantic life. Meanwhile the prisoners are learning the tango. 

Trivia:

Won Venice Horizons Award - Special Jury Prize - Venice Film Festival 2012

Imdb: 
http://www.imdb.com/title/tt2370034

Trailer: 
http://www.bandes-annonces.fr/film-2012/bande-annonce-tangolibre.html

Media Info:

Geral
Complete name                            : Tango.Libre.2012.DVDRip.XviD.AC3.HORiZON-ArtSubs
Format                                   : AVI
Format/Info                              : Audio Video Interleave
File size                                : 1.37 GiB
Duration                                 : 1h 33mn
Overall bit rate                         : 2 100 Kbps

Vídeo
ID                                       : 0
Format                                   : MPEG-4 Visual
Format profile                           : Advanced Simple@L5
Format settings, BVOP                    : 2
Format settings, QPel                    : Não
Format settings, GMC                     : Sem warppoints
Format settings, Matrix                  : Default (MPEG)
Codec ID                                 : XVID
Codec ID/Hint                            : XviD
Duration                                 : 1h 33mn
Bit rate                                 : 1 642 Kbps
Width                                    : 720 pixels
Height                                   : 304 pixels
Display aspect ratio                     : 2.35:1
Frame rate                               : 25.000 fps
Color space                              : YUV
Chroma subsampling                       : 4:2:0
Bit depth                                : 8 bits
Scan type                                : Progressivo
Bits/(Pixel*Frame)                       : 0.300
Stream size                              : 1.07 GiB (78%)
Writing library                          : XviD 1.2.1 (UTC 2008-12-04)

Áudio
ID                                       : 1
Format                                   : AC-3
Format/Info                              : Audio Coding 3
Mode extension                           : CM (complete main)
Format settings, Endianness              : Big
Codec ID                                 : 2000
Duration                                 : 1h 33mn
Bit rate mode                            : Constante
Bit rate                                 : 448 Kbps
Channel(s)                               : 6 canais
Channel positions                        : Front: L C R, Side: L R, LFE
Sampling rate                            : 48.0 KHz
Bit depth                                : 16 bits
Stream size                              : 298 MiB (21%)
Alignment                                : Dividir entre as intercalações
Interleave, duration                     : 40 ms (1.00 quadro de vídeo)
Interleave, preload duration             : 500 ms

